<svg height="180" viewBox="0 0 180 180" width="180" xmlns="http://www.w3.org/2000/svg">
    <path d="m179.577 90.3969c-.197 49.7131-40.642 89.8011-90.1834 89.6021-49.5419-.198-89.590642-40.683-89.39287065-90.3959.19777165-49.7129 40.64207065-89.800821 90.18387065-89.60236633 49.6404.19845533 89.5904 40.68326633 89.3924 90.39616633z"
          fill="#221f1f"/>
    <path d="m122.127 134.553c-9.493 17.067-21.261 31.059-34.4125 30.761-8.2076-.199-16.0195-3.275-23.1393-8.137 2.2743-4.167 16.6128-25.005 57.5518-22.624zm55.079-44.1559c-.198 48.3239-39.554 87.4189-87.8105 87.1219-48.2563-.199-87.01955-39.592-87.01955-87.9157 0-31.3559 15.62395-53.8805 30.45685-65.9863 18.195-14.78484 30.5557-3.4729 34.9067 5.1599-.4944-3.6714-1.9777-14.1895-6.032-21.73083 8.8997-3.07605 18.4916-4.76292 28.4791-4.66369 48.2564.29768 87.2174 39.59172 87.0194 88.01472zm-92.0626-50.4075c12.6574-8.6328 34.5116-13.3957 46.0806 4.6637-7.021-41.27865-37.3786-17.5633-46.0806-4.6637zm-17.6017 38.9963c2.67-2.9768 5.7354-5.9536 9.2953-8.6327 15.8218-12.205 33.127-15.2811 38.763-6.7475 2.176 3.2745 2.275 7.839.594 12.8003 5.636-9.3273 7.416-17.9601 3.955-22.723-5.834-7.9382-23.9303-2.4807-40.4443 12.2049-4.8454 4.0684-8.8997 8.6328-12.163 13.098zm-27.5891 7.3429c8.0097 1.4884 16.7117-8.732 19.3816-23.0208 2.6699-14.2887-1.5822-26.9898-9.5919-28.5775-8.0098-1.4884-16.7117 8.732-19.3816 23.0208-2.67 14.1895 1.5821 26.9898 9.5919 28.5775zm111.3454-17.2656c-76.6365 51.4988-129.5404 25.4022-129.5404 25.4022-.7911 17.8606 29.7646 72.7336 66.1546 73.4286 36.4888.694 63.3858-98.8308 63.3858-98.8308zm-118.7619-11.0142c2.4722-13.0981 9.9875-22.6239 16.8106-21.2347 6.8232 1.29 10.3831 12.9988 8.0098 26.0968-2.4721 13.098-9.9875 22.6239-16.8106 21.2347-6.922-1.29-10.4819-12.9988-8.0098-26.0968zm14.5363 11.1134c3.0654.6946 6.4275-3.076 7.6142-8.3351 1.1866-5.259-.3956-10.1212-3.461-10.7165-2.0766-.4962-4.2521 1.0915-5.8343 3.7706 1.3844.6946 2.0766 2.4807 1.3844 3.9691-.5933 1.3892-1.9777 2.0838-3.3621 1.7861-.5933 4.6637.89 8.8312 3.6588 9.5258z"
          fill="#05bc52"/>
</svg>
